<svg width="60" height="60" viewBox="0 0 60 60" fill="none" xmlns="http://www.w3.org/2000/svg">
<g clip-path="url(#clip0_16_2038)">
<path d="M58.5 14.5V2H2.5V14.5H58.5Z" fill="#C7EFC2"/>
<path d="M41.5 33L29.5 28.5L18 33L17.5 39L19.5 51.5L29.5 58.5L38 55L42 45.5L41.5 33Z" fill="#C7EFC2"/>
<path d="M30.457 59.9883C30.1406 59.9883 29.8359 59.9883 29.5195 59.9883C29.4492 59.9531 29.3789 59.9062 29.3086 59.8945C24.082 58.957 20.2617 56.1211 17.8008 51.4453C17.6133 51.082 17.3672 51.0703 17.0508 51.0703C12.1641 51.0703 7.26562 51.0586 2.37891 51.0938C1.28906 51.0938 0.480469 50.7891 0 49.793C0 34.0664 0 18.3281 0 2.58984C0.621094 0.949219 1.78125 0.0234375 3.57422 0.0117188C21.1875 0 38.7891 0.0117188 56.4023 0C58.2188 0 60.0117 1.30078 60.0117 3.59766C59.9766 18.6797 59.9883 33.7734 59.9883 48.8555C59.9883 50.4141 59.3555 51.0586 57.7852 51.0586C52.8633 51.0586 47.9414 51.0703 43.0312 51.0469C42.5625 51.0469 42.3164 51.1992 42.0938 51.6094C40.2539 55.1133 37.4883 57.6211 33.7734 59.0273C32.6953 59.4609 31.5586 59.6836 30.457 59.9883ZM16.3828 47.5312C16.3008 46.8516 16.1719 46.2188 16.1719 45.5742C16.1367 41.3789 16.125 37.1836 16.1133 32.9883C16.1133 32.0508 16.5352 31.5 17.4258 31.1836C21.3516 29.7891 25.2773 28.3828 29.2266 27.0234C29.6719 26.8711 30.2578 26.8477 30.6914 26.9883C34.6758 28.3594 38.6367 29.7773 42.5977 31.1953C43.4297 31.4883 43.8633 32.0859 43.8633 32.9648C43.8516 37.2188 43.8398 41.4727 43.8047 45.7266C43.8047 46.3125 43.6641 46.9102 43.5938 47.5078C47.9062 47.5078 52.1719 47.5078 56.4258 47.5078C56.4258 37.5117 56.4258 27.5742 56.4258 17.6133C38.7773 17.6133 21.1641 17.6133 3.53906 17.6133C3.53906 27.5977 3.53906 37.5469 3.53906 47.5195C7.82812 47.5312 12.082 47.5312 16.3828 47.5312ZM3.5625 3.5625C3.5625 7.08984 3.5625 10.5703 3.5625 14.0273C21.2227 14.0273 38.8359 14.0273 56.4375 14.0273C56.4375 10.5117 56.4375 7.04297 56.4375 3.5625C38.8008 3.5625 21.1992 3.5625 3.5625 3.5625ZM40.3008 40.1367C40.3242 40.1367 40.3359 40.1367 40.3594 40.1367C40.3594 38.3203 40.3477 36.5039 40.3711 34.6875C40.3711 34.2656 40.2422 34.0781 39.8438 33.9375C36.7031 32.8359 33.5625 31.7109 30.4219 30.6094C30.1758 30.5273 29.8359 30.5273 29.5898 30.6094C26.4258 31.7109 23.2734 32.8477 20.1094 33.9609C19.7578 34.0781 19.6172 34.2422 19.6172 34.6172C19.6289 37.8984 19.5938 41.1797 19.6406 44.4492C19.7109 49.7461 22.8984 54.1758 27.8438 55.8984C28.5938 56.1562 29.4141 56.4727 30.1641 56.3789C35.4023 55.7578 40.0078 50.8008 40.3008 45.5039C40.3828 43.7344 40.3008 41.9297 40.3008 40.1367Z" fill="#283742"/>
<path d="M38.8944 8.82422C38.8827 9.77344 38.0741 10.5586 37.1366 10.5586C36.1639 10.5586 35.3554 9.71484 35.3905 8.75391C35.4139 7.80469 36.2343 7.03125 37.1835 7.05469C38.121 7.06641 38.9061 7.875 38.8944 8.82422Z" fill="#283742"/>
<path d="M45.9139 8.80078C45.9139 9.75 45.1288 10.5469 44.1796 10.5586C43.2069 10.5703 42.3866 9.75 42.3983 8.77734C42.41 7.82813 43.2186 7.04297 44.1561 7.04297C45.1171 7.05469 45.9139 7.85156 45.9139 8.80078Z" fill="#283742"/>
<path d="M52.9453 8.80078C52.9453 9.75 52.1602 10.5469 51.2109 10.5586C50.2383 10.5703 49.418 9.75 49.4414 8.77734C49.4531 7.82813 50.2617 7.04297 51.2109 7.04297C52.1484 7.05469 52.9453 7.85156 52.9453 8.80078Z" fill="#283742"/>
<path d="M29.7188 43.793C31.0079 42.5039 32.1914 41.2852 33.4102 40.1016C34.4297 39.1055 36.0235 39.5391 36.375 40.875C36.5391 41.4844 36.3868 42.0469 35.9532 42.4922C34.2891 44.168 32.6368 45.8438 30.9493 47.4961C30.2813 48.1524 29.25 48.1289 28.5704 47.4727C27.6563 46.5938 26.7539 45.7031 25.875 44.7891C25.2071 44.0977 25.2305 43.0195 25.875 42.3516C26.5547 41.6602 27.6094 41.625 28.3477 42.3164C28.8047 42.7734 29.2266 43.2656 29.7188 43.793Z" fill="#283742"/>
</g>
<defs>
<clipPath id="clip0_16_2038">
<rect width="60" height="60" fill="white"/>
</clipPath>
</defs>
</svg>
